<svg xmlns="http://www.w3.org/2000/svg"  viewBox="0 0 125.33333 130.66667" width="125.33333" height="130.66667">
  <g transform="matrix(1.3333333,0,0,-1.3333333,0,130.66667)">
    <path
      d="m 47.0107,55.1221 c -2.009,0 -3.877,0.604 -5.437,1.64 l -29.522,18.676 c 0,0 -3.015,1.646 -3.022,4.238 -0.009,2.508 3.435,4.325 3.435,4.325 l 19.863,11.646 c 0.232,0.145 0.474,0.274 0.717,0.399 0.634,0.327 1.29,0.611 1.959,0.857 0.946,0.348 1.957,0.7 2.949,0.881 0.956,0.174 1.898,0.276 2.868,0.177 1.061,-0.107 1.83,-0.347 2.736,-0.741 0.907,-0.394 1.899,-0.615 2.872,-0.767 0,0 0.282,-0.047 0.581,-0.067 z"
      style="fill: #00bf74; fill-opacity: 1; fill-rule: nonzero; stroke: none"
      id="path1445"
    />
    <path
      d="m 42.1572,47.166 c -1.004,1.753 -2.457,3.083 -4.128,3.927 L 7.2252,67.53 c 0,0 -2.921,1.809 -5.152,0.52 -2.158,-1.247 -1.997,-5.162 -1.997,-5.162 L 0.0032,39.723 c -0.009,-0.275 0.001,-0.551 0.015,-0.826 0.037,-0.716 0.121,-1.431 0.244,-2.139 0.175,-1 0.377,-2.059 0.718,-3.015 0.328,-0.922 0.712,-1.795 1.281,-2.593 0.623,-0.872 1.213,-1.423 2.005,-2.017 0.792,-0.595 1.478,-1.351 2.096,-2.125 0,0 0.181,-0.222 0.347,-0.473 z"
      style="fill: #00bf74; fill-opacity: 1; fill-rule: nonzero; stroke: none"
      id="path1449"
    />
    <path
      d="m 47.0103,55.1221 c 2.009,0 3.877,0.604 5.437,1.64 l 29.522,18.676 c 0,0 3.015,1.646 3.023,4.238 0.008,2.508 -3.436,4.325 -3.436,4.325 l -19.862,11.646 c -0.233,0.145 -0.475,0.274 -0.718,0.399 -0.634,0.327 -1.29,0.611 -1.959,0.857 -0.946,0.348 -1.957,0.7 -2.949,0.881 -0.956,0.174 -1.898,0.276 -2.868,0.177 -1.061,-0.107 -1.83,-0.347 -2.735,-0.741 -0.908,-0.394 -1.9,-0.615 -2.873,-0.767 0,0 -0.282,-0.047 -0.581,-0.067 z"
      style="fill: #00e874; fill-opacity: 1; fill-rule: nonzero; stroke: none"
      id="path1453"
    />
    <path
      d="m 51.8638,47.166 c 1.004,1.753 2.457,3.083 4.128,3.927 l 30.804,16.437 c 0,0 2.921,1.809 5.152,0.52 2.158,-1.247 1.997,-5.162 1.997,-5.162 l 0.073,-23.165 c 0.009,-0.275 -10e-4,-0.551 -0.015,-0.826 -0.037,-0.716 -0.121,-1.431 -0.244,-2.139 -0.175,-1 -0.377,-2.059 -0.718,-3.015 -0.328,-0.922 -0.712,-1.795 -1.281,-2.593 -0.623,-0.872 -1.213,-1.423 -2.005,-2.017 -0.792,-0.595 -1.478,-1.351 -2.096,-2.125 0,0 -0.18,-0.222 -0.347,-0.473 z"
      style="fill: #00e874; fill-opacity: 1; fill-rule: nonzero; stroke: none"
      id="path1457"
    />
    <path
      d="m 42.1572,47.166 c 1.004,-1.753 1.42,-3.687 1.31,-5.567 L 42.1842,6.486 c 0,0 0.094,-3.455 -2.13,-4.758 -2.149,-1.26 -5.432,0.837 -5.432,0.837 l -19.936,11.519 c -0.24,0.13 -0.473,0.277 -0.702,0.427 -0.598,0.39 -1.169,0.821 -1.715,1.282 -0.772,0.652 -1.58,1.358 -2.231,2.134 -0.628,0.748 -1.186,1.519 -1.587,2.415 -0.438,0.98 -0.616,1.771 -0.731,2.76 -0.115,0.988 -0.421,1.965 -0.777,2.891 0,0 -0.1,0.27 -0.233,0.54 z"
      style="fill: #00a774; fill-opacity: 1; fill-rule: nonzero; stroke: none"
      id="path1461"
    />
    <path
      d="m 51.8643,47.166 c -1.004,-1.753 -1.42,-3.687 -1.31,-5.567 l 1.283,-35.113 c 0,0 -0.094,-3.455 2.129,-4.758 2.15,-1.26 5.433,0.837 5.433,0.837 l 19.936,11.519 c 0.24,0.13 0.472,0.277 0.701,0.427 0.598,0.39 1.17,0.821 1.716,1.282 0.772,0.652 1.58,1.358 2.231,2.134 0.628,0.748 1.186,1.519 1.587,2.415 0.438,0.98 0.616,1.771 0.731,2.76 0.114,0.988 0.42,1.965 0.777,2.891 0,0 0.1,0.27 0.232,0.54 z"
      style="fill: #00a774; fill-opacity: 1; fill-rule: nonzero; stroke: none"
      id="path1465"
    />
  </g>
</svg>
